<svg width="300" height="250" xmlns="http://www.w3.org/2000/svg">
  <!-- Background -->
  <rect width="300" height="250" fill="#f8f9fa"/>
  
  <!-- Trucker cap shape -->
  <ellipse cx="150" cy="180" rx="85" ry="18" fill="#2c3e50"/>
  <path d="M65 180 Q65 155 85 145 L215 145 Q235 155 235 180 Q235 135 215 125 L85 125 Q65 135 65 180" fill="#34495e"/>
  
  <!-- Mesh back -->
  <path d="M180 125 Q235 135 235 180 Q235 155 215 145 L180 145 Z" fill="#7f8c8d" opacity="0.6"/>
  <g stroke="#95a5a6" stroke-width="1" opacity="0.8">
    <line x1="185" y1="130" x2="225" y2="140"/>
    <line x1="185" y1="135" x2="225" y2="145"/>
    <line x1="185" y1="140" x2="225" y2="150"/>
    <line x1="185" y1="145" x2="225" y2="155"/>
    <line x1="185" y1="150" x2="225" y2="160"/>
  </g>
  
  <!-- Street Faith patch -->
  <rect x="110" y="135" width="80" height="30" rx="5" fill="#27ae60"/>
  <text x="150" y="148" text-anchor="middle" fill="white" font-family="Arial, sans-serif" font-size="10" font-weight="bold">STREET</text>
  <text x="150" y="160" text-anchor="middle" fill="white" font-family="Arial, sans-serif" font-size="10" font-weight="bold">FAITH</text>
  
  <!-- Cross design -->
  <line x1="150" y1="115" x2="150" y2="130" stroke="#e74c3c" stroke-width="3"/>
  <line x1="142" y1="122" x2="158" y2="122" stroke="#e74c3c" stroke-width="3"/>
  
  <!-- Urban elements -->
  <rect x="100" y="170" width="100" height="3" fill="#f39c12"/>
  <rect x="110" y="175" width="80" height="2" fill="#f39c12"/>
  
  <!-- Snapback closure -->
  <rect x="210" y="170" width="30" height="12" rx="3" fill="#34495e"/>
  <circle cx="218" cy="176" r="2" fill="#95a5a6"/>
  <circle cx="225" cy="176" r="2" fill="#95a5a6"/>
  <circle cx="232" cy="176" r="2" fill="#95a5a6"/>
  
  <!-- Brand tag -->
  <rect x="20" y="20" width="80" height="25" rx="5" fill="#27ae60"/>
  <text x="60" y="37" text-anchor="middle" fill="white" font-family="Arial, sans-serif" font-size="12" font-weight="bold">TRUCKER</text>
</svg>