<svg width="300" height="350" xmlns="http://www.w3.org/2000/svg">
  <!-- Background -->
  <rect width="300" height="350" fill="#f8f9fa"/>
  
  <!-- T-shirt shape -->
  <path d="M80 80 Q80 70 90 70 L120 70 Q130 60 130 50 Q130 40 140 40 L160 40 Q170 40 170 50 L170 60 Q170 70 180 70 L210 70 Q220 70 220 80 L220 120 Q210 120 210 130 L210 280 Q210 290 200 290 L100 290 Q90 290 90 280 L90 130 Q80 130 80 120 Z" fill="#2c3e50" stroke="#34495e" stroke-width="2"/>
  
  <!-- Cross design -->
  <line x1="150" y1="120" x2="150" y2="180" stroke="#e74c3c" stroke-width="4"/>
  <line x1="120" y1="150" x2="180" y2="150" stroke="#e74c3c" stroke-width="4"/>
  
  <!-- Text "FÉ" -->
  <text x="150" y="220" text-anchor="middle" fill="#ecf0f1" font-family="Arial, sans-serif" font-size="24" font-weight="bold">FÉ</text>
  
  <!-- Decorative elements -->
  <circle cx="130" cy="250" r="3" fill="#f39c12"/>
  <circle cx="170" cy="250" r="3" fill="#f39c12"/>
  
  <!-- Brand tag -->
  <rect x="20" y="20" width="80" height="25" rx="5" fill="#e74c3c"/>
  <text x="60" y="37" text-anchor="middle" fill="white" font-family="Arial, sans-serif" font-size="12" font-weight="bold">HOLY STREET</text>
</svg>