<svg width="300" height="350" xmlns="http://www.w3.org/2000/svg">
  <!-- Background -->
  <rect width="300" height="350" fill="#f8f9fa"/>
  
  <!-- T-shirt shape -->
  <path d="M80 80 Q80 70 90 70 L120 70 Q130 60 130 50 Q130 40 140 40 L160 40 Q170 40 170 50 L170 60 Q170 70 180 70 L210 70 Q220 70 220 80 L220 120 Q210 120 210 130 L210 280 Q210 290 200 290 L100 290 Q90 290 90 280 L90 130 Q80 130 80 120 Z" fill="#ffffff" stroke="#bdc3c7" stroke-width="2"/>
  
  <!-- Anchor symbol (hope) -->
  <path d="M150 120 L150 180 M135 165 Q135 175 150 175 Q165 175 165 165 M140 130 L160 130" stroke="#2980b9" stroke-width="4" fill="none"/>
  <circle cx="150" cy="125" r="8" fill="none" stroke="#2980b9" stroke-width="3"/>
  
  <!-- Text "ESPERANÇA" -->
  <text x="150" y="210" text-anchor="middle" fill="#2c3e50" font-family="Arial, sans-serif" font-size="16" font-weight="bold">ESPERANÇA</text>
  
  <!-- Decorative stars -->
  <polygon points="120,240 122,246 128,246 123,250 125,256 120,252 115,256 117,250 112,246 118,246" fill="#f39c12"/>
  <polygon points="180,240 182,246 188,246 183,250 185,256 180,252 175,256 177,250 172,246 178,246" fill="#f39c12"/>
  
  <!-- Verse reference -->
  <text x="150" y="275" text-anchor="middle" fill="#7f8c8d" font-family="Arial, sans-serif" font-size="10">Hebreus 6:19</text>
  
  <!-- Brand tag -->
  <rect x="20" y="20" width="80" height="25" rx="5" fill="#3498db"/>
  <text x="60" y="37" text-anchor="middle" fill="white" font-family="Arial, sans-serif" font-size="12" font-weight="bold">HOLY STREET</text>
</svg>