<svg width="300" height="350" xmlns="http://www.w3.org/2000/svg">
  <!-- Background -->
  <rect width="300" height="350" fill="#f8f9fa"/>
  
  <!-- T-shirt shape -->
  <path d="M80 80 Q80 70 90 70 L120 70 Q130 60 130 50 Q130 40 140 40 L160 40 Q170 40 170 50 L170 60 Q170 70 180 70 L210 70 Q220 70 220 80 L220 120 Q210 120 210 130 L210 280 Q210 290 200 290 L100 290 Q90 290 90 280 L90 130 Q80 130 80 120 Z" fill="#fdf2f8" stroke="#f8bbd9" stroke-width="2"/>
  
  <!-- Heart symbol -->
  <path d="M150 160 C145 150, 130 150, 130 165 C130 175, 150 190, 150 190 C150 190, 170 175, 170 165 C170 150, 155 150, 150 160 Z" fill="#e91e63"/>
  
  <!-- Text "AMOR" -->
  <text x="150" y="220" text-anchor="middle" fill="#ad1457" font-family="Arial, sans-serif" font-size="20" font-weight="bold">AMOR</text>
  
  <!-- Decorative hearts -->
  <path d="M120 240 C118 237, 115 237, 115 240 C115 242, 120 245, 120 245 C120 245, 125 242, 125 240 C125 237, 122 237, 120 240 Z" fill="#f06292"/>
  <path d="M180 240 C178 237, 175 237, 175 240 C175 242, 180 245, 180 245 C180 245, 185 242, 185 240 C185 237, 182 237, 180 240 Z" fill="#f06292"/>
  
  <!-- Verse reference -->
  <text x="150" y="270" text-anchor="middle" fill="#880e4f" font-family="Arial, sans-serif" font-size="12">1 João 4:8</text>
  
  <!-- Brand tag -->
  <rect x="20" y="20" width="80" height="25" rx="5" fill="#e91e63"/>
  <text x="60" y="37" text-anchor="middle" fill="white" font-family="Arial, sans-serif" font-size="12" font-weight="bold">HOLY STREET</text>
</svg>