<svg width="300" height="380" xmlns="http://www.w3.org/2000/svg">
  <!-- Background -->
  <rect width="300" height="380" fill="#f8f9fa"/>
  
  <!-- Hoodie shape -->
  <path d="M70 90 Q70 80 80 80 L110 80 Q120 70 120 60 Q120 50 130 50 L170 50 Q180 50 180 60 L180 70 Q180 80 190 80 L220 80 Q230 80 230 90 L230 130 Q240 130 240 140 L240 180 Q240 190 230 190 L230 320 Q230 330 220 330 L80 330 Q70 330 70 320 L70 190 Q60 190 60 180 L60 140 Q60 130 70 130 Z" fill="#34495e" stroke="#2c3e50" stroke-width="2"/>
  
  <!-- Hood -->
  <path d="M110 80 Q150 40 190 80 Q190 60 150 60 Q110 60 110 80" fill="#34495e" stroke="#2c3e50" stroke-width="2"/>
  
  <!-- Kangaroo pocket -->
  <rect x="120" y="200" width="60" height="50" rx="10" fill="#2c3e50" stroke="#34495e" stroke-width="1"/>
  
  <!-- Urban Gospel text -->
  <text x="150" y="135" text-anchor="middle" fill="#27ae60" font-family="Arial, sans-serif" font-size="14" font-weight="bold">URBAN</text>
  <text x="150" y="155" text-anchor="middle" fill="#e74c3c" font-family="Arial, sans-serif" font-size="16" font-weight="bold">GOSPEL</text>
  
  <!-- Large cross design -->
  <line x1="150" y1="170" x2="150" y2="195" stroke="#f39c12" stroke-width="4"/>
  <line x1="137" y1="182" x2="163" y2="182" stroke="#f39c12" stroke-width="4"/>
  
  <!-- Street elements -->
  <rect x="100" y="270" width="100" height="4" fill="#e67e22"/>
  <rect x="110" y="280" width="80" height="2" fill="#e67e22"/>
  
  <!-- Drawstrings -->
  <circle cx="140" cy="100" r="2" fill="#27ae60"/>
  <circle cx="160" cy="100" r="2" fill="#27ae60"/>
  <path d="M140 100 Q150 110 160 100" stroke="#27ae60" stroke-width="2" fill="none"/>
  
  <!-- Brand tag -->
  <rect x="20" y="20" width="80" height="25" rx="5" fill="#27ae60"/>
  <text x="60" y="37" text-anchor="middle" fill="white" font-family="Arial, sans-serif" font-size="12" font-weight="bold">HOLY STREET</text>
  
  <!-- Oversized label -->
  <rect x="200" y="300" width="70" height="20" rx="3" fill="#e67e22"/>
  <text x="235" y="313" text-anchor="middle" fill="white" font-family="Arial, sans-serif" font-size="10" font-weight="bold">OVERSIZED</text>
</svg>