<svg width="300" height="380" xmlns="http://www.w3.org/2000/svg">
  <!-- Background -->
  <rect width="300" height="380" fill="#f8f9fa"/>
  
  <!-- Hoodie shape -->
  <path d="M70 90 Q70 80 80 80 L110 80 Q120 70 120 60 Q120 50 130 50 L170 50 Q180 50 180 60 L180 70 Q180 80 190 80 L220 80 Q230 80 230 90 L230 130 Q240 130 240 140 L240 180 Q240 190 230 190 L230 320 Q230 330 220 330 L80 330 Q70 330 70 320 L70 190 Q60 190 60 180 L60 140 Q60 130 70 130 Z" fill="#ecf0f1" stroke="#bdc3c7" stroke-width="2"/>
  
  <!-- Hood -->
  <path d="M110 80 Q150 40 190 80 Q190 60 150 60 Q110 60 110 80" fill="#ecf0f1" stroke="#bdc3c7" stroke-width="2"/>
  
  <!-- Kangaroo pocket -->
  <rect x="120" y="200" width="60" height="50" rx="10" fill="#d5dbdb" stroke="#bdc3c7" stroke-width="1"/>
  
  <!-- Peace symbol -->
  <circle cx="150" cy="140" r="25" fill="none" stroke="#27ae60" stroke-width="4"/>
  <line x1="150" y1="115" x2="150" y2="165" stroke="#27ae60" stroke-width="4"/>
  <line x1="150" y1="140" x2="132" y2="158" stroke="#27ae60" stroke-width="4"/>
  <line x1="150" y1="140" x2="168" y2="158" stroke="#27ae60" stroke-width="4"/>
  
  <!-- Peace text -->
  <text x="150" y="185" text-anchor="middle" fill="#2c3e50" font-family="Arial, sans-serif" font-size="18" font-weight="bold">PEACE</text>
  
  <!-- Dove silhouette -->
  <path d="M120 110 Q115 105 120 100 Q125 105 130 100 Q135 105 140 110 Q135 115 130 110 Q125 115 120 110" fill="#3498db" opacity="0.7"/>
  <path d="M160 110 Q165 105 170 100 Q175 105 180 100 Q185 105 180 110 Q175 115 170 110 Q165 115 160 110" fill="#3498db" opacity="0.7"/>
  
  <!-- Drawstrings -->
  <circle cx="140" cy="100" r="2" fill="#27ae60"/>
  <circle cx="160" cy="100" r="2" fill="#27ae60"/>
  <path d="M140 100 Q150 110 160 100" stroke="#27ae60" stroke-width="2" fill="none"/>
  
  <!-- Verse reference -->
  <text x="150" y="280" text-anchor="middle" fill="#7f8c8d" font-family="Arial, sans-serif" font-size="10">João 14:27</text>
  
  <!-- Brand tag -->
  <rect x="20" y="20" width="80" height="25" rx="5" fill="#27ae60"/>
  <text x="60" y="37" text-anchor="middle" fill="white" font-family="Arial, sans-serif" font-size="12" font-weight="bold">PEACE</text>
  
  <!-- Comfort fit label -->
  <rect x="200" y="300" width="70" height="20" rx="3" fill="#3498db"/>
  <text x="235" y="313" text-anchor="middle" fill="white" font-family="Arial, sans-serif" font-size="10" font-weight="bold">COMFORT</text>
</svg>